<?xml version="1.0" standalone="no"?>
<!DOCTYPE svg PUBLIC "-//W3C//DTD SVG 20010904//EN"
 "http://www.w3.org/TR/2001/REC-SVG-20010904/DTD/svg10.dtd">
<svg version="1.0" xmlns="http://www.w3.org/2000/svg"
 width="295.000000pt" height="295.000000pt" viewBox="0 0 295.000000 295.000000"
 preserveAspectRatio="xMidYMid meet">
<metadata>
Created by potrace 1.11, written by Peter Selinger 2001-2013
</metadata>
<g transform="translate(0.000000,295.000000) scale(0.100000,-0.100000)"
fill="#000000" stroke="none">
<path d="M1385 2204 c-11 -2 -45 -9 -75 -15 -153 -31 -320 -139 -414 -268 -48
-66 -102 -174 -116 -232 -7 -27 -19 -53 -29 -58 -9 -5 -60 -11 -113 -15 -53
-4 -107 -9 -120 -11 -13 -2 -50 -6 -83 -10 -194 -21 -386 -71 -418 -108 -18
-21 -18 -22 7 -44 29 -24 125 -56 223 -73 35 -5 75 -12 90 -15 16 -3 53 -7 83
-10 30 -4 66 -8 80 -10 14 -3 63 -7 110 -11 47 -4 96 -8 110 -10 14 -1 30 -3
37 -3 7 -1 19 -22 26 -48 86 -288 359 -495 667 -509 301 -13 591 179 695 459
38 102 37 100 81 102 33 2 115 9 234 20 38 4 130 16 154 21 11 2 38 6 61 10
88 12 192 41 236 65 10 5 23 18 29 29 9 17 6 23 -22 40 -51 31 -192 67 -331
85 -27 4 -56 8 -65 10 -10 1 -80 8 -157 15 -193 16 -179 11 -194 69 -7 27 -27
80 -45 118 -92 190 -252 325 -455 384 -63 19 -243 33 -286 23z"/>
</g>
</svg>
